<?xml version="1.0" encoding="UTF-8" standalone="no" ?>
<!DOCTYPE svg PUBLIC "-//W3C//DTD SVG 1.1//EN" "http://www.w3.org/Graphics/SVG/1.1/DTD/svg11.dtd">
<svg xmlns="http://www.w3.org/2000/svg" xmlns:xlink="http://www.w3.org/1999/xlink" version="1.1" width="1024" height="1024" viewBox="0 0 500 500" xml:space="preserve">
<desc>Created with Fabric.js 5.3.0</desc>
<defs>
</defs>
<g transform="matrix(1.0014793218 0 0 1.6023669148 250 250)" id="hpbkDL1t32C-C77r8Xc8l"  >
<path style="stroke: rgb(0,0,0); stroke-width: 12; stroke-dasharray: none; stroke-linecap: butt; stroke-dashoffset: 0; stroke-linejoin: miter; stroke-miterlimit: 4; fill: rgb(120,233,46); fill-opacity: 0; fill-rule: nonzero; opacity: 1;" vector-effect="non-scaling-stroke"  transform=" translate(0, 0)" d="M -124.81536 -124.75989 C -124.81536 -124.79053 -124.77562 -124.81536 -124.72661 -124.81536 L 124.72660000000002 -124.81536 L 124.72660000000002 -124.81536 C 124.77562000000002 -124.81536 124.81535000000002 -124.79052 124.81535000000002 -124.75989 L 124.81535000000002 124.75988 L 124.81535000000002 124.75988 C 124.81535000000002 124.79052 124.77561000000003 124.81535 124.72660000000002 124.81535 L -124.72661 124.81535 L -124.72661 124.81535 C -124.77562999999999 124.81535 -124.81536 124.79051 -124.81536 124.75988 z" stroke-linecap="round" />
</g>
<g transform="matrix(2.2574626435 0 0 0.0902985057 250 322)" id="aUD7OovHdDVjdro-gE9uX"  >
<path style="stroke: rgb(0,0,0); stroke-width: 0; stroke-dasharray: none; stroke-linecap: butt; stroke-dashoffset: 0; stroke-linejoin: miter; stroke-miterlimit: 4; fill: rgb(0,0,0); fill-rule: nonzero; opacity: 1;" vector-effect="non-scaling-stroke"  transform=" translate(0, 0)" d="M -55.3719 -55.3719 L 55.3719 -55.3719 L 55.3719 55.3719 L -55.3719 55.3719 z" stroke-linecap="round" />
</g>
<g transform="matrix(2.2574626435 0 0 0.0902985057 249.9999957496 187.9999998278)" id="TECCRRFXD1k9LfyK4IKv2"  >
<path style="stroke: rgb(0,0,0); stroke-width: 0; stroke-dasharray: none; stroke-linecap: butt; stroke-dashoffset: 0; stroke-linejoin: miter; stroke-miterlimit: 4; fill: rgb(0,0,0); fill-rule: nonzero; opacity: 1;" vector-effect="non-scaling-stroke"  transform=" translate(0, 0)" d="M -55.3719 -55.3719 L 55.3719 -55.3719 L 55.3719 55.3719 L -55.3719 55.3719 z" stroke-linecap="round" />
</g>
<g transform="matrix(1.423529651 0 0 0.1779412068 249.9999957496 255)" id="NyHDMXamHm4jBhwJvt_hM"  >
<path style="stroke: rgb(0,0,0); stroke-width: 0; stroke-dasharray: none; stroke-linecap: butt; stroke-dashoffset: 0; stroke-linejoin: miter; stroke-miterlimit: 4; fill: rgb(0,0,0); fill-rule: nonzero; opacity: 1;" vector-effect="non-scaling-stroke"  transform=" translate(0, 0)" d="M -28.09917 -23.6033 C -28.09917 -26.0863 -27.84756 -28.09917 -27.537190000000002 -28.09917 L 28.099159999999998 -28.09917 L 28.099159999999998 23.603299999999997 L 28.099159999999998 23.603299999999997 C 28.099159999999998 26.086299999999998 27.84755 28.099169999999997 27.53718 28.099169999999997 L -28.09917 28.099169999999997 z" stroke-linecap="round" />
</g>
<g transform="matrix(1.423529651 0 0 0.1779412068 249.9999902955 385.0000002199)" id="SuTKZ235lyK2L2L6cNihx"  >
<path style="stroke: rgb(0,0,0); stroke-width: 0; stroke-dasharray: none; stroke-linecap: butt; stroke-dashoffset: 0; stroke-linejoin: miter; stroke-miterlimit: 4; fill: rgb(0,0,0); fill-rule: nonzero; opacity: 1;" vector-effect="non-scaling-stroke"  transform=" translate(0.000005, 0)" d="M -28.09917 -23.6033 C -28.09917 -26.0863 -27.84756 -28.09917 -27.537190000000002 -28.09917 L 28.099159999999998 -28.09917 L 28.099159999999998 23.603299999999997 L 28.099159999999998 23.603299999999997 C 28.099159999999998 26.086299999999998 27.84755 28.099169999999997 27.53718 28.099169999999997 L -28.09917 28.099169999999997 z" stroke-linecap="round" />
</g>
<g transform="matrix(1.423529651 0 0 0.1779412068 250.0000012038 121.0000002199)" id="UDI52Uw5swHmoFt6F6Q1r"  >
<path style="stroke: rgb(0,0,0); stroke-width: 0; stroke-dasharray: none; stroke-linecap: butt; stroke-dashoffset: 0; stroke-linejoin: miter; stroke-miterlimit: 4; fill: rgb(0,0,0); fill-rule: nonzero; opacity: 1;" vector-effect="non-scaling-stroke"  transform=" translate(0.000005, 0)" d="M -28.09917 -23.6033 C -28.09917 -26.0863 -27.84756 -28.09917 -27.537190000000002 -28.09917 L 28.099159999999998 -28.09917 L 28.099159999999998 23.603299999999997 L 28.099159999999998 23.603299999999997 C 28.099159999999998 26.086299999999998 27.84755 28.099169999999997 27.53718 28.099169999999997 L -28.09917 28.099169999999997 z" stroke-linecap="round" />
</g>
</svg>